# xmcd
#
# Track frame offsets:
#	182
#	12635
#	25797
#	40217
#	54007
#	65880
#	79467
#	96397
#	109170
#	122215
#
# Disc length: 1797 seconds
# Revision: 4
# Processed by: cddbd v1.5.2PL0 Copyright (c) Steve Scherf et al.
# Submitted via: dBpowerAMP V12.0
#
DISCID=8907030a
DTITLE=Freddy Fender - Freddy Fender Collection
DYEAR=1991
DGENRE=Country
TTITLE0=Wasted Days And Wasted Nights
TTITLE1=It's All In The Game
TTITLE2=Since I Met You Baby
TTITLE3=I Can't Stop Loving You
TTITLE4=Before The Next Teardrop Falls
TTITLE5=Tell It Like It Is
TTITLE6=Secret Love
TTITLE7=You'll Lose A Good Thing
TTITLE8=Pledging My Love
TTITLE9=Vaya Con Dios (May God Be With You)
EXTD=
EXTT0=
EXTT1=
EXTT2=
EXTT3=
EXTT4=
EXTT5=
EXTT6=
EXTT7=
EXTT8=
EXTT9=
PLAYORDER=
